<svg width="138" height="47" viewBox="0 0 138 47" fill="none" xmlns="http://www.w3.org/2000/svg">
<path d="M127 12.48H128C128.373 12.48 128.697 12.4867 128.97 12.5C129.25 12.52 129.49 12.5633 129.69 12.63C129.89 12.6967 130.06 12.8033 130.2 12.95C130.347 13.0967 130.473 13.3 130.58 13.56L131.17 15.02C131.237 15.1867 131.297 15.31 131.35 15.39C131.403 15.47 131.47 15.52 131.55 15.54C131.63 15.56 131.747 15.57 131.9 15.57C132.067 15.57 132.187 15.5433 132.26 15.49C132.34 15.4367 132.39 15.34 132.41 15.2C132.437 15.06 132.45 14.8633 132.45 14.61C132.45 14.4633 132.443 14.2833 132.43 14.07C132.417 13.8567 132.4 13.6233 132.38 13.37C132.36 13.1233 132.333 12.8733 132.3 12.62H133.73C133.777 12.8467 133.817 13.1033 133.85 13.39C133.883 13.6767 133.91 13.97 133.93 14.27C133.95 14.57 133.96 14.85 133.96 15.11C133.96 15.4567 133.937 15.78 133.89 16.08C133.85 16.3867 133.763 16.6567 133.63 16.89C133.497 17.1233 133.3 17.3033 133.04 17.43C132.787 17.5633 132.443 17.63 132.01 17.63C131.577 17.63 131.223 17.5833 130.95 17.49C130.683 17.4033 130.473 17.2767 130.32 17.11C130.167 16.9433 130.047 16.75 129.96 16.53L129.32 14.89C129.28 14.7767 129.237 14.6867 129.19 14.62C129.15 14.5533 129.097 14.5067 129.03 14.48C128.963 14.46 128.873 14.45 128.76 14.45H128.54V17.63H127V12.48ZM126.92 21.4328C126.92 20.9128 126.947 20.4795 127 20.1328C127.053 19.7928 127.147 19.5195 127.28 19.3128C127.42 19.1128 127.62 18.9595 127.88 18.8528C128.147 18.7528 128.487 18.6861 128.9 18.6528C129.32 18.6261 129.833 18.6128 130.44 18.6128C131.047 18.6128 131.557 18.6261 131.97 18.6528C132.39 18.6861 132.73 18.7528 132.99 18.8528C133.257 18.9595 133.457 19.1128 133.59 19.3128C133.73 19.5195 133.827 19.7928 133.88 20.1328C133.933 20.4795 133.96 20.9128 133.96 21.4328C133.96 21.9528 133.933 22.3828 133.88 22.7228C133.827 23.0695 133.73 23.3428 133.59 23.5428C133.457 23.7495 133.257 23.9028 132.99 24.0028C132.73 24.1095 132.39 24.1761 131.97 24.2028C131.557 24.2361 131.047 24.2528 130.44 24.2528C129.833 24.2528 129.32 24.2361 128.9 24.2028C128.487 24.1761 128.147 24.1095 127.88 24.0028C127.62 23.9028 127.42 23.7495 127.28 23.5428C127.147 23.3428 127.053 23.0695 127 22.7228C126.947 22.3828 126.92 21.9528 126.92 21.4328ZM128.43 21.4328C128.43 21.5861 128.437 21.7061 128.45 21.7928C128.47 21.8861 128.51 21.9595 128.57 22.0128C128.637 22.0661 128.74 22.1061 128.88 22.1328C129.027 22.1595 129.223 22.1761 129.47 22.1828C129.723 22.1895 130.047 22.1928 130.44 22.1928C130.833 22.1928 131.153 22.1895 131.4 22.1828C131.653 22.1761 131.85 22.1595 131.99 22.1328C132.137 22.1061 132.24 22.0661 132.3 22.0128C132.367 21.9595 132.407 21.8861 132.42 21.7928C132.44 21.7061 132.45 21.5861 132.45 21.4328C132.45 21.2861 132.44 21.1661 132.42 21.0728C132.407 20.9795 132.367 20.9061 132.3 20.8528C132.24 20.7995 132.137 20.7595 131.99 20.7328C131.85 20.7061 131.653 20.6895 131.4 20.6828C131.153 20.6828 130.833 20.6828 130.44 20.6828C130.047 20.6828 129.723 20.6828 129.47 20.6828C129.223 20.6895 129.027 20.7061 128.88 20.7328C128.74 20.7595 128.637 20.7995 128.57 20.8528C128.51 20.9061 128.47 20.9795 128.45 21.0728C128.437 21.1661 128.43 21.2861 128.43 21.4328ZM127 25.2144H128C128.373 25.2144 128.697 25.221 128.97 25.2344C129.25 25.2544 129.49 25.2977 129.69 25.3644C129.89 25.431 130.06 25.5377 130.2 25.6844C130.347 25.831 130.473 26.0344 130.58 26.2944L131.17 27.7544C131.237 27.921 131.297 28.0444 131.35 28.1244C131.403 28.2044 131.47 28.2544 131.55 28.2744C131.63 28.2944 131.747 28.3044 131.9 28.3044C132.067 28.3044 132.187 28.2777 132.26 28.2244C132.34 28.171 132.39 28.0744 132.41 27.9344C132.437 27.7944 132.45 27.5977 132.45 27.3444C132.45 27.1977 132.443 27.0177 132.43 26.8044C132.417 26.591 132.4 26.3577 132.38 26.1044C132.36 25.8577 132.333 25.6077 132.3 25.3544H133.73C133.777 25.581 133.817 25.8377 133.85 26.1244C133.883 26.411 133.91 26.7044 133.93 27.0044C133.95 27.3044 133.96 27.5844 133.96 27.8444C133.96 28.191 133.937 28.5144 133.89 28.8144C133.85 29.121 133.763 29.391 133.63 29.6244C133.497 29.8577 133.3 30.0377 133.04 30.1644C132.787 30.2977 132.443 30.3644 132.01 30.3644C131.577 30.3644 131.223 30.3177 130.95 30.2244C130.683 30.1377 130.473 30.011 130.32 29.8444C130.167 29.6777 130.047 29.4844 129.96 29.2644L129.32 27.6244C129.28 27.511 129.237 27.421 129.19 27.3544C129.15 27.2877 129.097 27.241 129.03 27.2144C128.963 27.1944 128.873 27.1844 128.76 27.1844H128.54V30.3644H127V25.2144ZM127 32.1972H131.9L131.4 30.9772H132.95L133.88 32.8472V34.2572H127V32.1972Z" fill="#035AA7"/>
<path d="M63.83 34V13.36H74.57C75.85 13.36 76.93 13.55 77.81 13.93C78.71 14.29 79.39 14.85 79.85 15.61C80.31 16.37 80.54 17.35 80.54 18.55C80.54 19.53 80.4 20.35 80.12 21.01C79.86 21.65 79.46 22.16 78.92 22.54C78.38 22.92 77.7 23.21 76.88 23.41V23.53C77.7 23.71 78.39 23.98 78.95 24.34C79.51 24.68 79.93 25.18 80.21 25.84C80.49 26.5 80.63 27.39 80.63 28.51C80.63 29.39 80.51 30.17 80.27 30.85C80.05 31.53 79.7 32.11 79.22 32.59C78.74 33.05 78.11 33.4 77.33 33.64C76.57 33.88 75.64 34 74.54 34H63.83ZM69.92 29.59H72.26C72.88 29.59 73.35 29.55 73.67 29.47C73.99 29.37 74.2 29.18 74.3 28.9C74.4 28.6 74.45 28.16 74.45 27.58C74.45 27 74.4 26.56 74.3 26.26C74.2 25.96 73.99 25.76 73.67 25.66C73.35 25.56 72.88 25.51 72.26 25.51H69.92V29.59ZM69.92 21.64H72.23C72.83 21.64 73.29 21.59 73.61 21.49C73.93 21.39 74.14 21.2 74.24 20.92C74.34 20.64 74.39 20.24 74.39 19.72C74.39 19.14 74.34 18.72 74.24 18.46C74.14 18.18 73.93 18 73.61 17.92C73.31 17.82 72.85 17.77 72.23 17.77H69.92V21.64ZM81.9519 34L88.0719 13.36H96.5919L102.682 34H96.5319L95.5419 30.46H88.9419L87.9819 34H81.9519ZM90.0519 26.08H94.4019L92.3319 18.46H92.0919L90.0519 26.08ZM104.582 34V13.36H110.762V21.28H111.632L116.642 13.36H123.242L116.642 23.11L123.332 34H116.522L111.632 25.75H110.762V34H104.582Z" fill="#033059"/>
<path d="M0 21C0 21 44.1692 2.32821 51.0234 3.01869L55 8.71876L0 21Z" fill="#033059"/>
<path d="M1 23C1 23 50.29 12.1864 57.1618 14.2655L60 21.053L1 23Z" fill="#035AA7"/>
<path d="M0 24.4198C0 24.4198 53.5309 22.6906 60.3171 26.2515L62 34L0 24.4198Z" fill="#033059"/>
</svg>
