<svg width="34" height="34" viewBox="0 0 34 34" fill="none" xmlns="http://www.w3.org/2000/svg">
<path d="M20.8773 22.298L17.0272 24.4659C16.8571 24.5615 16.7327 24.7187 16.681 24.9032C16.63 25.0877 16.6555 25.2844 16.752 25.4508C16.8574 25.6088 17.0188 25.7233 17.2055 25.7727C17.3922 25.8219 17.591 25.8024 17.7638 25.7179L21.2452 23.7641L24.7265 25.7179C24.8961 25.7984 25.0905 25.8134 25.271 25.7601C25.4515 25.7065 25.6045 25.5886 25.6994 25.4298C25.7933 25.271 25.8223 25.0836 25.7808 24.9049C25.7384 24.726 25.628 24.5695 25.4718 24.4668L21.6217 22.2989C21.5075 22.2385 21.3795 22.2069 21.2495 22.207C21.1195 22.2071 20.9916 22.2387 20.8773 22.2989V22.298Z" fill="white"/>
<path d="M33.3103 11.9206C33.3058 11.7908 33.268 11.6641 33.2004 11.5521C33.1332 11.4398 33.0385 11.3456 32.9247 11.2779L29.3587 9.27181V5.21983C29.3547 5.09061 29.3182 4.96433 29.2523 4.85217C29.1861 4.74034 29.093 4.64592 28.981 4.57708L25.2137 2.45333C25.1597 2.40938 25.1001 2.37245 25.0364 2.34347L21.0927 0.0942937C20.9756 0.0325244 20.8446 0.000121401 20.7115 2.19435e-07C20.5783 -9.73126e-05 20.4473 0.0323191 20.3302 0.0942937L16.6951 2.13932L13.0644 0.0942937C12.9473 0.0325244 12.8163 0.000121401 12.6831 2.19435e-07C12.55 -9.73126e-05 12.4189 0.0323191 12.3019 0.0942937L8.35821 2.34347C8.27017 2.39284 8.19351 2.4594 8.13301 2.53898L4.32055 4.65494C4.20837 4.72356 4.1152 4.81803 4.04924 4.93003C3.98303 5.04206 3.94647 5.16841 3.94285 5.29768V9.277L0.376865 11.2831C0.261491 11.3483 0.165766 11.442 0.0993502 11.5547C0.0328142 11.6672 -0.00148402 11.7951 4.92423e-05 11.925V16.368C0.000836795 16.4595 0.0198092 16.55 0.0559094 16.6344C0.0182446 16.7239 -0.000748489 16.8197 4.92423e-05 16.9164V21.3681C0.00366932 21.4973 0.040244 21.6237 0.106453 21.7357C0.172087 21.848 0.265325 21.9425 0.377758 22.0108L3.94374 24.0169V28.0689C3.94736 28.1982 3.98392 28.3245 4.05013 28.4365C4.11577 28.5488 4.20901 28.6433 4.32144 28.7116L8.09666 30.8354C8.1484 30.8906 8.20814 30.9381 8.27398 30.9764L12.2256 33.2022C12.3399 33.2686 12.4704 33.3039 12.6034 33.3043C12.736 33.3014 12.8658 33.2663 12.981 33.2022L16.6162 31.1572L20.2513 33.21C20.3671 33.2758 20.4986 33.3104 20.6326 33.3103C20.7665 33.3102 20.898 33.2756 21.0138 33.21L24.9575 30.9842C25.0444 30.9333 25.1208 30.8669 25.1827 30.7887L28.9898 28.6416C29.102 28.573 29.1952 28.4785 29.2612 28.3665C29.3271 28.2543 29.3636 28.128 29.3675 27.9988V24.0195L32.9255 22.0056C33.0377 21.937 33.1309 21.8425 33.1969 21.7305C33.2628 21.6184 33.2993 21.4921 33.3033 21.3629V16.9242C33.3016 16.8328 33.2827 16.7425 33.2474 16.6578C33.2844 16.5681 33.3033 16.4724 33.3033 16.3758L33.3103 11.9206ZM25.0373 20.6899C24.8605 20.6025 24.6566 20.5824 24.4654 20.6336C24.2741 20.6841 24.1086 20.8018 24.0008 20.9641C23.9221 21.1324 23.9073 21.3225 23.9592 21.5004C24.011 21.6773 24.1253 21.8305 24.2819 21.933L27.8479 23.9391V27.5282L24.6348 29.3232L21.0688 27.3171C20.8919 27.2297 20.6881 27.2097 20.4969 27.2609C20.3056 27.3114 20.1401 27.4291 20.0323 27.5914C19.982 27.6756 19.9494 27.7689 19.9366 27.8656C19.9234 27.9619 19.93 28.0599 19.9561 28.1537C19.9823 28.2478 20.0272 28.3359 20.0882 28.4132C20.1495 28.4902 20.2261 28.5543 20.3134 28.6018L23.1807 30.216L20.6024 31.6658L17.0364 29.6598C16.9 29.5848 16.7424 29.5544 16.5869 29.5732C16.4315 29.5544 16.2739 29.5847 16.1374 29.6598L12.5714 31.6658L9.35832 29.8708V25.8915C9.3689 25.788 9.35743 25.6834 9.32464 25.5844C9.29115 25.4854 9.23713 25.3941 9.16593 25.3162C9.09423 25.2394 9.00699 25.1778 8.9097 25.1354C8.81198 25.0932 8.70626 25.0714 8.59937 25.0714C8.49248 25.0713 8.38676 25.0931 8.28907 25.1354C8.19139 25.1776 8.10381 25.2392 8.03194 25.3162C7.96076 25.3941 7.90674 25.4854 7.87323 25.5844C7.84033 25.6834 7.82915 25.788 7.84043 25.8915V29.0265L5.43059 27.6632V24.0506L8.64371 22.2556L11.8568 24.0506V28.0706C11.8759 28.2539 11.9641 28.4238 12.1042 28.5473C12.2444 28.671 12.4267 28.7395 12.6158 28.7393C12.8045 28.7393 12.9865 28.6708 13.1265 28.5473C13.2667 28.4238 13.3552 28.254 13.3747 28.0706V23.7055L16.242 22.0913C16.4163 21.9931 16.5437 21.8317 16.5967 21.6423C16.649 21.4528 16.6228 21.2509 16.524 21.08C16.416 20.9179 16.2506 20.8002 16.0594 20.7495C15.8682 20.6983 15.6644 20.7184 15.4875 20.8058L12.2744 22.6008L9.39911 20.9788V17.1621L12.3551 15.5003C12.442 15.4526 12.5182 15.3885 12.5794 15.3117C12.6404 15.2345 12.6853 15.1463 12.7115 15.0522C12.7375 14.9584 12.7444 14.8605 12.7319 14.7641C12.7183 14.6676 12.6858 14.5745 12.6362 14.4899C12.5282 14.3278 12.3628 14.2101 12.1716 14.1595C11.9804 14.1082 11.7765 14.1283 11.5997 14.2157L8.54795 15.932L5.07772 13.9726C4.89743 13.8762 4.68612 13.8508 4.48723 13.9017C4.28817 13.9526 4.11695 14.0765 4.00934 14.2477C3.91011 14.4184 3.88399 14.6205 3.93664 14.81C3.98941 14.9995 4.11692 15.1609 4.2913 15.259L7.8892 17.2339V20.9407L4.72219 22.7202L1.50909 20.9096V17.6223L4.31258 19.1898C4.42698 19.2559 4.55733 19.2911 4.69027 19.2919C4.82276 19.2884 4.95227 19.2527 5.06709 19.1881C5.18189 19.1237 5.2787 19.0328 5.34903 18.9234C5.39861 18.8386 5.43055 18.7451 5.44301 18.6483C5.45523 18.5515 5.448 18.4534 5.42173 18.3594C5.36617 18.1699 5.23957 18.0078 5.06709 17.9052L1.50909 15.9536V12.3644L4.66545 10.5858L8.26335 12.6153C8.34992 12.6728 8.44771 12.7123 8.55062 12.7312C8.65368 12.75 8.7596 12.748 8.86182 12.7252C8.96384 12.7024 9.05986 12.6591 9.14376 12.598C9.22828 12.5377 9.29895 12.4608 9.35123 12.3722C9.40401 12.2841 9.43752 12.1864 9.44964 12.085C9.46162 11.9833 9.45197 11.8802 9.42127 11.7822C9.39089 11.6844 9.34019 11.5937 9.27232 11.5158C9.2048 11.438 9.12148 11.3746 9.02761 11.3298L5.45365 9.31593V5.72156L8.66676 3.92655L12.2327 5.94043C12.4096 6.02783 12.6134 6.04787 12.8046 5.99666C12.9962 5.94666 13.1618 5.82886 13.2692 5.6662C13.3203 5.58204 13.3537 5.48883 13.3676 5.39198C13.3814 5.29518 13.3754 5.19668 13.3499 5.10218C13.2942 4.91275 13.1677 4.75064 12.9952 4.64802L10.104 3.04158L12.6752 1.56059L16.2411 3.59783C16.3556 3.66391 16.4859 3.69914 16.6188 3.6999H16.6995C16.8529 3.7171 17.008 3.68684 17.1428 3.61339L20.7168 1.56059L23.9299 3.3556V7.39894C23.949 7.58222 24.0372 7.75207 24.1773 7.87559C24.3175 7.99934 24.4998 8.06779 24.6889 8.06764C24.8776 8.06757 25.0596 7.99914 25.1996 7.87559C25.3398 7.75211 25.4283 7.5823 25.4478 7.39894V4.26393L27.8576 5.63506V9.2398L24.6445 11.0348L21.4314 9.2398V5.21983C21.442 5.11629 21.4305 5.01174 21.3977 4.91273C21.3644 4.81358 21.3104 4.72226 21.239 4.64456C21.1673 4.56767 21.0801 4.50611 20.9828 4.46376C20.8851 4.42151 20.7794 4.3997 20.6725 4.39974C20.5656 4.39959 20.4598 4.42141 20.3622 4.46376C20.2645 4.50588 20.1769 4.56746 20.105 4.64456C20.0337 4.72212 19.9799 4.8135 19.9472 4.91273C19.9136 5.01157 19.9022 5.11629 19.9135 5.21983V9.58496L17.0462 11.1992C16.9519 11.2438 16.8683 11.3071 16.8006 11.3852C16.7324 11.463 16.6814 11.5537 16.6508 11.6516C16.6201 11.7496 16.6104 11.8526 16.6224 11.9544C16.6345 12.0557 16.668 12.1535 16.7208 12.2416C16.7731 12.3301 16.8438 12.407 16.9283 12.4674C17.0125 12.5284 17.1088 12.5717 17.2111 12.5945C17.3133 12.6174 17.4192 12.6194 17.5223 12.6006C17.6252 12.5815 17.7229 12.542 17.8096 12.4847L21.0227 10.6897L23.898 12.3117V16.118L20.942 17.7875C20.8013 17.8713 20.6921 17.9973 20.6308 18.1466C20.5697 18.2958 20.5597 18.4602 20.6024 18.6154C20.645 18.7708 20.7384 18.9084 20.8684 19.0073C20.9973 19.1071 21.1561 19.1633 21.3206 19.1673C21.4535 19.1664 21.5838 19.1311 21.6983 19.0653L24.75 17.349L28.2203 19.3083C28.3497 19.3821 28.4989 19.4165 28.6485 19.407C28.7979 19.3975 28.941 19.3451 29.0599 19.2564C29.1782 19.1681 29.2673 19.0478 29.3161 18.9104C29.3642 18.7706 29.3685 18.6201 29.3285 18.4779C29.3068 18.3828 29.2655 18.293 29.2071 18.214C29.1493 18.1345 29.0758 18.0671 28.9907 18.0159L25.4248 16.002V12.3186L28.5811 10.54L31.7942 12.3506V15.6655L28.9828 14.098C28.8059 14.0106 28.6021 13.9906 28.4109 14.0418C28.2195 14.0923 28.0541 14.2099 27.9463 14.3723C27.8564 14.5447 27.8356 14.7436 27.8878 14.9302C27.9397 15.1171 28.0607 15.2785 28.2274 15.3835L31.7933 17.3896V20.9788L28.645 22.7184L25.0373 20.6899Z" fill="white"/>
<path d="M18.8496 15.3767C18.7375 15.2164 18.5656 15.1 18.367 15.0499C18.1684 14.9993 17.9566 15.0191 17.7729 15.1055L14.4348 16.9187C14.3455 16.9669 14.2673 17.0308 14.2045 17.1069C14.1412 17.1831 14.0951 17.2704 14.0691 17.3635C14.0423 17.4563 14.0358 17.5531 14.0498 17.6483C14.064 17.7435 14.0985 17.835 14.1511 17.9177C14.2022 18.0018 14.2707 18.0757 14.3528 18.135C14.4348 18.1942 14.5288 18.2375 14.6291 18.2624C14.7293 18.2879 14.8338 18.2945 14.9368 18.2821C15.0395 18.2698 15.1385 18.2384 15.2278 18.1897L18.5659 16.3765C18.7379 16.2721 18.862 16.112 18.9141 15.9275C18.9659 15.743 18.9429 15.5473 18.8496 15.3775V15.3767Z" fill="white"/>
<path d="M17.9363 8.40186C17.9621 8.31061 17.9682 8.21548 17.9542 8.12201C17.9405 8.02841 17.9067 7.93835 17.8549 7.85719C17.7458 7.70061 17.5788 7.58701 17.3857 7.53807C17.1926 7.48861 16.9868 7.50797 16.8082 7.59237L13.215 9.53716L9.61387 7.59237C9.43859 7.51682 9.24019 7.50201 9.05426 7.5506C8.86875 7.5993 8.70785 7.70797 8.60032 7.85719C8.4979 8.0214 8.4659 8.2157 8.51078 8.40103C8.55556 8.58596 8.67357 8.74828 8.84117 8.85548L12.8318 11.0049C12.9472 11.0691 13.0789 11.1031 13.2133 11.1035C13.3475 11.1026 13.4791 11.0686 13.5947 11.0049L17.5773 8.85548C17.6664 8.80637 17.7441 8.74103 17.8056 8.66334C17.8665 8.58497 17.91 8.49608 17.9336 8.40186H17.9363Z" fill="white"/>
</svg>
