<svg width="382" height="112" viewBox="0 0 382 112" fill="none" xmlns="http://www.w3.org/2000/svg">
<path d="M279.255 75.0531C276.968 75.0531 274.468 73.2971 274.051 69.474C270.403 75.7745 265.301 84.1376 256.554 84.1376C251.969 84.1376 248.221 80.1121 249.68 72.4694C248.323 75.0531 245.613 78.3545 243.324 80.625C241.136 82.7942 237.908 84.3421 234.989 84.0318C223.535 82.7942 233.743 63.0759 237.386 56.7776C240.408 51.7198 243.221 51.1023 247.803 51.1023C243.324 52.5475 229.368 79.9045 236.657 81.9683C238.326 82.4843 241.345 80.9364 243.324 78.6642C249.467 71.9522 252.489 63.4903 257.179 55.5411C260.199 50.4822 263.009 49.862 267.592 49.862C264.57 50.7897 254.886 67.4105 253.843 75.5688C253.116 81.4527 257.071 82.1768 259.054 81.9683C266.029 81.3499 271.76 70.8185 273.948 65.3452C273.426 63.3846 273.01 54.0948 274.884 49.5533C276.132 46.5594 280.3 45.3203 280.3 50.5849C280.3 54.4053 278.634 59.1543 278.007 60.7024C277.487 62.044 276.655 64.1091 275.511 66.4843C275.405 70.7162 277.175 73.7098 279.57 73.7098C283.531 73.7098 286.027 69.374 287.484 66.4843C287.902 65.5544 289.256 65.4509 288.424 67.3087C286.76 71.0261 283.736 75.0531 279.255 75.0531Z" fill="#D2232A"/>
<path d="M304.569 43.6731C302.592 43.6731 301.342 42.0195 301.653 40.0589C301.965 38.0954 303.946 36.5479 305.924 36.5479C307.905 36.5479 309.153 38.0954 308.839 40.0589C308.427 42.0195 306.55 43.6731 304.569 43.6731ZM298.217 80.6283C296.031 82.7975 292.8 84.5524 289.886 84.0352C277.803 81.9714 289.468 61.8402 293.115 55.5444C296.133 50.4853 298.945 49.8653 303.53 49.8653C299.051 51.3102 284.26 79.9079 291.55 81.9714C293.218 82.4876 296.24 80.8358 298.217 78.6675C301.342 75.2622 303.844 71.1306 306.55 66.3831C307.177 65.3485 307.905 66.2774 307.28 67.4138C304.78 71.9555 302.174 76.7067 298.217 80.6283Z" fill="#D2232A"/>
<path d="M307.798 67.4105C310.401 67.3087 311.339 69.4742 310.919 70.2001C309.462 69.681 308.007 70.2001 306.86 71.1275C304.985 72.5724 303.629 75.4621 303.629 77.9412C303.526 83.2077 309.151 83.8251 312.692 81.5556C315.505 79.6961 316.962 76.4994 317.796 72.9868C319.359 66.5846 318.734 58.7399 318.945 55.6429C319.047 53.0619 319.984 50.3782 320.717 49.759C316.65 51.3071 309.88 62.766 307.798 67.4105ZM326.127 80.112C323.422 82.5873 319.879 83.5164 318.005 83.3134C316.859 83.2077 316.234 82.8972 315.712 82.4845C314.152 83.3134 312.278 83.8251 310.298 84.1375C306.756 84.5492 303.424 83.7249 301.754 80.318C300.611 77.841 300.818 74.3284 301.754 72.0562C302.799 69.681 304.258 67.7221 305.922 67.4105C307.696 63.2834 313.318 53.7861 317.796 49.6551C318.734 48.6244 322.797 44.8046 325.815 44.2874C329.88 43.5627 330.296 48.0059 326.543 49.2418C325.815 49.3463 324.672 49.759 322.172 49.759C319.775 53.1649 324.045 62.147 324.149 66.38C324.36 71.5405 322.482 77.1169 318.523 80.625L317.068 81.6586C319.461 82.3815 323.422 80.7307 326.127 78.0467C329.462 74.9488 331.753 71.233 333.837 67.4105C334.361 66.4845 335.292 67.4105 334.566 68.755C332.481 72.5724 329.255 77.2169 326.127 80.112Z" fill="#D2232A"/>
<path d="M371.331 12.7984C361.227 22.1944 351.747 38.8173 345.813 51.2035C354.144 45.1166 360.293 39.2278 367.167 32.0006C370.083 29.0081 376.642 22.093 379.041 16.5151C382.58 7.95088 375.916 8.46364 371.331 12.7984ZM366.434 35.2019C357.896 43.359 349.564 49.7584 344.876 53.27C342.063 59.1539 340.19 63.7984 339.666 65.655C341.856 62.3538 345.085 57.9135 347.27 55.6423C350.396 52.4423 353.73 50.07 356.75 49.7584C363.727 49.1398 364.665 53.3712 362.164 59.1539C360.293 63.384 357.586 67.826 355.5 71.7468C354.875 72.8816 352.999 76.5988 352.583 79.2839C352.269 81.3492 353.312 82.2781 354.56 82.2781C356.853 82.2781 359.041 80.4201 360.602 78.6635C363.727 75.2584 366.225 71.1268 368.938 66.3793C369.563 65.3445 370.394 66.2736 369.771 67.4099C367.27 71.9516 364.561 76.703 360.602 80.6243C358.416 82.7936 355.293 84.8573 351.437 83.8245C346.751 82.5869 346.542 77.3231 347.895 73.7093C350.187 67.6158 355.189 62.3538 357.998 56.4682C359.666 53.1643 357.998 51.3065 356.228 51.5134C353.523 51.7191 350.396 54.196 347.585 57.5007C344.876 60.4943 342.061 64.6259 339.563 68.9619C337.166 72.9862 334.355 77.7337 332.898 80.73C331.232 84.3417 329.15 83.4128 327.792 83.4128C329.046 78.7671 332.691 70.4052 337.375 59.1539C343.833 43.8735 356.955 14.5572 375.082 8.87801C376.75 8.5693 378.726 8.25958 380.289 9.28968C381.746 10.2185 382.371 12.7984 380.811 16.6225C378.621 22.093 373.204 28.5955 366.434 35.2019Z" fill="#D2232A"/>
<path d="M94.2908 22.2977C108.588 22.2977 107.038 7.12363 92.1145 7.12363C84.4479 7.12363 76.4679 9.18724 72.6337 15.6913C80.3044 19.4053 87.5564 22.2977 94.2908 22.2977ZM68.3853 15.8982C56.1591 10.322 42.5876 3.71668 27.5629 3.71668C15.5422 3.71668 3.10789 10.841 3.10789 24.2601C3.10789 34.2734 10.3632 44.1855 22.5888 44.1855C23.4194 44.1855 23.4194 45.4232 22.5888 45.4232C9.11935 45.4232 0 33.5491 0 21.989C0 6.91503 14.0907 0 27.252 0C42.8974 0 56.9899 7.84559 69.7337 14.2434C75.3303 7.6381 84.2403 5.88323 92.3223 5.88323C111.283 5.88323 113.769 23.5371 93.464 23.5371C86.6223 23.5371 79.4742 20.8514 71.7014 17.4473C65.5895 31.2809 82.5821 46.7653 82.5821 63.7989C82.5821 85.6856 62.6892 101.272 38.236 101.272C20.8273 101.272 12.0207 91.6722 12.0207 79.7978C12.0207 48.9328 64.032 30.4538 64.032 57.6052C64.032 66.8987 56.3685 75.9804 48.9073 80.6249C40.4116 85.9943 30.5669 87.1317 25.1791 85.0664C24.4523 84.8577 24.8693 84.1375 25.5938 84.3422C31.0861 85.2711 40.2028 83.4133 47.8687 78.4589C54.5012 74.1226 61.9624 66.07 61.9624 57.6052C61.9624 32.6213 16.1636 52.5474 16.1636 80.4207C16.1636 90.5386 22.9014 99.0017 37.7166 99.0017C59.5786 99.0017 74.0852 82.8971 74.0852 64.6264C74.0852 48.6241 59.0621 29.9376 68.3853 15.8982Z" fill="#55C5CE"/>
<path d="M121.228 80.6253C119.053 82.7945 115.839 84.5494 112.94 84.0322C107.447 83.1021 106.826 78.4593 108.173 72.987C106.516 75.6709 104.65 78.3548 102.373 80.6253C100.193 82.7945 96.9808 84.3424 94.0817 84.0322C82.6845 82.7945 92.8378 63.0762 96.4628 56.7779C99.4689 51.7201 102.267 51.1027 106.826 51.1027C102.373 52.5476 88.4878 79.9049 95.7396 81.9684C97.3978 82.4846 100.401 80.9367 102.373 78.6645C108.483 71.9525 111.49 63.4904 116.148 55.5414C119.155 50.4823 121.953 49.8623 126.513 49.8623C122.058 51.3072 107.344 79.9049 114.595 81.9684C116.254 82.4846 119.261 80.8328 121.228 78.6645C124.335 75.2592 126.825 71.1276 129.518 66.3801C130.139 65.3455 130.865 66.2744 130.244 67.4108C127.755 71.9525 125.166 76.7037 121.228 80.6253Z" fill="#55C5CE"/>
<path d="M140.914 57.3992C136.149 62.5617 132.938 68.8581 131.691 73.2986C130.862 76.3964 130.761 80.9379 133.352 80.9379C138.74 80.9379 146.512 67.412 149.1 63.3861C151.172 60.1877 153.35 56.7791 156.457 52.4444C151.172 49.7605 145.162 52.6502 140.914 57.3992ZM121.64 100.448C115.426 105.197 116.565 112.014 124.855 109.433C132.107 107.161 136.356 99.0032 139.363 91.5703C135.011 93.8425 127.551 95.9051 121.64 100.448ZM146.614 86.4084C154.179 82.5888 160.499 75.6721 164.743 67.9304C165.574 66.3813 167.44 65.5559 166.095 67.9304C163.606 72.3691 160.808 76.601 157.288 80.2136C154.179 83.5179 150.446 86.3044 145.888 88.3682C140.812 100.038 135.63 109.327 125.476 111.599C114.494 114.077 113.045 104.477 120.92 99.1089C127.34 94.7714 130.968 93.9472 140.292 89.6097C143.506 83.1033 146.717 72.5739 149.414 66.5859C148.895 67.1033 146.717 70.2016 145.888 71.4391C143.815 74.226 140.604 78.7692 137.184 81.4541C128.897 88.1649 124.026 81.0415 126.407 71.9537C128.481 64.2136 132.73 57.8142 139.258 53.0633C143.61 49.8635 152.002 48.6257 156.973 51.6201L157.288 51.3084C160.499 46.6651 163.296 43.361 167.75 42.3281C158.218 52.4444 150.759 76.0847 146.614 86.4084Z" fill="#55C5CE"/>
<path d="M189.403 51.2058C185.159 51.2058 181.013 53.7877 177.698 57.3994C173.037 62.6646 169.408 68.8582 168.372 73.2987C167.543 76.705 167.75 80.9378 170.444 80.9378C175.73 80.9378 183.498 67.4121 186.192 63.386C189.095 58.8433 190.754 55.8514 196.037 54.1982C196.244 54.1982 196.453 54.0964 196.763 54.0964C195.521 52.1356 192.202 51.2058 189.403 51.2058ZM194.275 80.6266C193.032 81.8669 191.478 83.0031 189.715 83.6235C188.37 84.1392 186.714 84.3437 184.95 83.8265C181.013 82.5889 180.807 77.6339 181.633 73.8144C181.633 73.6075 181.633 73.2987 181.74 73.0912C179.769 75.7761 176.972 79.286 174.175 81.4541C165.886 88.1651 161.016 81.0414 163.398 71.9538C165.369 64.3178 169.822 57.9156 176.349 53.0634C179.25 51.001 183.708 49.5547 188.061 49.5547C192.825 49.5547 196.867 51.104 198.215 53.6847C195.313 57.3994 191.996 63.5935 189.82 67.9305C188.37 70.9229 186.192 75.6722 185.989 78.8731C185.882 80.4224 186.298 82.3832 188.473 82.3832C190.649 82.3832 192.825 80.3194 194.275 78.6658C197.384 75.2605 199.871 71.1289 202.567 66.3814C203.186 65.3468 204.018 66.2757 203.393 67.4121C201.012 71.9538 198.215 76.705 194.275 80.6266Z" fill="#55C5CE"/>
<path d="M222.047 81.5548C214.378 87.957 207.02 82.6879 210.233 73.5006C211.995 68.5457 216.14 64.1084 219.453 59.4612C221.215 56.9836 222.254 53.371 218.42 52.8553C215.521 52.4421 211.062 52.8553 209.509 52.5466C208.575 57.7074 204.741 65.3443 201.635 70.508C200.598 72.161 200.389 70.3022 200.908 69.3731C203.811 63.7982 206.813 58.4293 207.852 52.5466C206.399 51.7189 205.159 49.8611 204.639 47.8992C203.395 42.8414 207.542 38.7114 209.403 44.3905C210.13 46.4558 209.819 49.4494 209.612 50.6872C211.894 51.513 218.629 50.9985 222.254 50.7889C228.782 50.3774 225.674 57.0883 223.912 60.0829C222.047 63.3837 220.596 65.6548 218.73 68.5457C211.48 79.6952 214.378 86.4062 222.047 79.594C225.881 76.1859 229.298 69.6803 231.167 66.2734C231.786 65.2431 232.304 66.7906 231.683 67.9282C229.298 72.2628 226.501 77.8401 222.047 81.5548Z" fill="#55C5CE"/>
</svg>
